<?xml version="1.0" encoding="utf-8" ?>
<svg baseProfile="tiny" height="100%" version="1.2" width="100%" xmlns="http://www.w3.org/2000/svg" xmlns:ev="http://www.w3.org/2001/xml-events" xmlns:xlink="http://www.w3.org/1999/xlink"><defs /><line stroke="rgb(100%,0%,0%)" x1="54.5" x2="37.2239" y1="94.3968" y2="132.2261" /><line stroke="rgb(100%,0%,0%)" x1="91.0" x2="66.8768" y1="173.2051" y2="139.3289" /><line stroke="rgb(100%,0%,0%)" x1="4.5" x2="45.8992" y1="165.4109" y2="161.4577" /><line stroke="rgb(100%,0%,0%)" x1="71.5388" x2="65.4267" y1="123.9088" y2="137.2924" /><line stroke="rgb(100%,0%,0%)" x1="56.9224" x2="48.3879" y1="173.2051" y2="161.2201" /><line stroke="rgb(100%,0%,0%)" x1="21.5388" x2="36.1854" y1="135.8988" y2="134.5002" /><line stroke="rgb(100%,0%,0%)" x1="65.4267" x2="37.2239" y1="137.2924" y2="132.2261" /><line stroke="rgb(100%,0%,0%)" x1="48.3879" x2="66.8768" y1="161.2201" y2="139.3289" /><line stroke="rgb(100%,0%,0%)" x1="36.1854" x2="45.8992" y1="134.5002" y2="161.4577" /><line stroke="rgb(100%,0%,0%)" x1="91.0" x2="66.8768" y1="173.2051" y2="207.0813" /><line stroke="rgb(100%,0%,0%)" x1="4.5" x2="45.8992" y1="180.9993" y2="184.9525" /><line stroke="rgb(100%,0%,0%)" x1="54.5" x2="37.2239" y1="252.0134" y2="214.184" /><line stroke="rgb(100%,0%,0%)" x1="56.9224" x2="48.3879" y1="173.2051" y2="185.1901" /><line stroke="rgb(100%,0%,0%)" x1="21.5388" x2="36.1854" y1="210.5114" y2="211.9099" /><line stroke="rgb(100%,0%,0%)" x1="71.5388" x2="65.4267" y1="222.5013" y2="209.1177" /><line stroke="rgb(100%,0%,0%)" x1="48.3879" x2="66.8768" y1="185.1901" y2="207.0813" /><line stroke="rgb(100%,0%,0%)" x1="36.1854" x2="45.8992" y1="211.9099" y2="184.9525" /><line stroke="rgb(100%,0%,0%)" x1="65.4267" x2="37.2239" y1="209.1177" y2="214.184" /><line stroke="rgb(100%,0%,0%)" x1="104.125" x2="87.2239" y1="180.3498" y2="218.8287" /><line stroke="rgb(100%,0%,0%)" x1="141.0" x2="116.8768" y1="259.8076" y2="225.9314" /><line stroke="rgb(100%,0%,0%)" x1="54.5" x2="95.8992" y1="252.0134" y2="248.0602" /><line stroke="rgb(100%,0%,0%)" x1="118.9296" x2="115.4267" y1="205.992" y2="223.895" /><line stroke="rgb(100%,0%,0%)" x1="106.9224" x2="98.3879" y1="259.8076" y2="247.8226" /><line stroke="rgb(100%,0%,0%)" x1="71.5388" x2="86.1854" y1="222.5013" y2="221.1028" /><line stroke="rgb(100%,0%,0%)" x1="115.4267" x2="87.2239" y1="223.895" y2="218.8287" /><line stroke="rgb(100%,0%,0%)" x1="98.3879" x2="116.8768" y1="247.8226" y2="225.9314" /><line stroke="rgb(100%,0%,0%)" x1="86.1854" x2="95.8992" y1="221.1028" y2="248.0602" /><line stroke="rgb(100%,0%,0%)" x1="141.0" x2="116.8768" y1="259.8076" y2="293.6838" /><line stroke="rgb(100%,0%,0%)" x1="54.5" x2="95.8992" y1="267.6018" y2="271.555" /><line stroke="rgb(100%,0%,0%)" x1="104.5" x2="87.2239" y1="338.6159" y2="300.7866" /><line stroke="rgb(100%,0%,0%)" x1="106.9224" x2="98.3879" y1="259.8076" y2="271.7926" /><line stroke="rgb(100%,0%,0%)" x1="71.5388" x2="86.1854" y1="297.1139" y2="298.5125" /><line stroke="rgb(100%,0%,0%)" x1="121.5388" x2="115.4267" y1="309.1039" y2="295.7203" /><line stroke="rgb(100%,0%,0%)" x1="98.3879" x2="116.8768" y1="271.7926" y2="293.6838" /><line stroke="rgb(100%,0%,0%)" x1="86.1854" x2="95.8992" y1="298.5125" y2="271.555" /><line stroke="rgb(100%,0%,0%)" x1="115.4267" x2="87.2239" y1="295.7203" y2="300.7866" /><line stroke="rgb(100%,0%,0%)" x1="154.5" x2="137.2239" y1="267.6018" y2="305.4312" /><line stroke="rgb(100%,0%,0%)" x1="191.0" x2="166.8768" y1="346.4102" y2="312.534" /><line stroke="rgb(100%,0%,0%)" x1="104.5" x2="145.8992" y1="338.6159" y2="334.6628" /><line stroke="rgb(100%,0%,0%)" x1="171.5388" x2="165.4267" y1="297.1139" y2="310.4975" /><line stroke="rgb(100%,0%,0%)" x1="156.9224" x2="148.3879" y1="346.4102" y2="334.4251" /><line stroke="rgb(100%,0%,0%)" x1="121.5388" x2="136.1854" y1="309.1039" y2="307.7053" /><line stroke="rgb(100%,0%,0%)" x1="165.4267" x2="137.2239" y1="310.4975" y2="305.4312" /><line stroke="rgb(100%,0%,0%)" x1="148.3879" x2="166.8768" y1="334.4251" y2="312.534" /><line stroke="rgb(100%,0%,0%)" x1="136.1854" x2="145.8992" y1="307.7053" y2="334.6628" /><line stroke="rgb(100%,0%,0%)" x1="104.5" x2="87.2239" y1="7.7942" y2="45.6236" /><line stroke="rgb(100%,0%,0%)" x1="141.0" x2="116.8768" y1="86.6025" y2="52.7263" /><line stroke="rgb(100%,0%,0%)" x1="54.5" x2="95.8992" y1="78.8083" y2="74.8552" /><line stroke="rgb(100%,0%,0%)" x1="121.5388" x2="115.4267" y1="37.3063" y2="50.6899" /><line stroke="rgb(100%,0%,0%)" x1="106.9224" x2="98.3879" y1="86.6025" y2="74.6175" /><line stroke="rgb(100%,0%,0%)" x1="71.5388" x2="86.1854" y1="49.2963" y2="47.8977" /><line stroke="rgb(100%,0%,0%)" x1="115.4267" x2="87.2239" y1="50.6899" y2="45.6236" /><line stroke="rgb(100%,0%,0%)" x1="98.3879" x2="116.8768" y1="74.6175" y2="52.7263" /><line stroke="rgb(100%,0%,0%)" x1="86.1854" x2="95.8992" y1="47.8977" y2="74.8552" /><line stroke="rgb(100%,0%,0%)" x1="141.0" x2="116.8768" y1="86.6025" y2="120.4788" /><line stroke="rgb(100%,0%,0%)" x1="54.5" x2="95.8992" y1="94.3968" y2="98.3499" /><line stroke="rgb(100%,0%,0%)" x1="104.125" x2="87.2239" y1="166.0604" y2="127.5815" /><line stroke="rgb(100%,0%,0%)" x1="106.9224" x2="98.3879" y1="86.6025" y2="98.5876" /><line stroke="rgb(100%,0%,0%)" x1="71.5388" x2="86.1854" y1="123.9088" y2="125.3074" /><line stroke="rgb(100%,0%,0%)" x1="118.9296" x2="115.4267" y1="140.4181" y2="122.5152" /><line stroke="rgb(100%,0%,0%)" x1="98.3879" x2="116.8768" y1="98.5876" y2="120.4788" /><line stroke="rgb(100%,0%,0%)" x1="86.1854" x2="95.8992" y1="125.3074" y2="98.3499" /><line stroke="rgb(100%,0%,0%)" x1="115.4267" x2="87.2239" y1="122.5152" y2="127.5815" /><line stroke="rgb(100%,0%,0%)" x1="153.75" x2="143.6694" y1="93.0977" y2="134.6506" /><line stroke="rgb(100%,0%,0%)" x1="192.5" x2="161.5545" y1="173.2051" y2="143.6986" /><line stroke="rgb(100%,0%,0%)" x1="104.125" x2="144.7761" y1="166.0604" y2="154.6635" /><line stroke="rgb(100%,0%,0%)" x1="166.3203" x2="159.7451" y1="114.8701" y2="141.9734" /><line stroke="rgb(100%,0%,0%)" x1="167.3594" x2="147.1748" y1="173.2051" y2="153.9592" /><line stroke="rgb(100%,0%,0%)" x1="118.9296" x2="143.08" y1="140.4181" y2="137.0801" /><line stroke="rgb(100%,0%,0%)" x1="159.7451" x2="143.6694" y1="141.9734" y2="134.6506" /><line stroke="rgb(100%,0%,0%)" x1="147.1748" x2="161.5545" y1="153.9592" y2="143.6986" /><line stroke="rgb(100%,0%,0%)" x1="143.08" x2="144.7761" y1="137.0801" y2="154.6635" /><line stroke="rgb(100%,0%,0%)" x1="192.5" x2="161.5545" y1="173.2051" y2="202.7115" /><line stroke="rgb(100%,0%,0%)" x1="104.125" x2="144.7761" y1="180.3498" y2="191.7467" /><line stroke="rgb(100%,0%,0%)" x1="153.75" x2="143.6694" y1="253.3124" y2="211.7596" /><line stroke="rgb(100%,0%,0%)" x1="167.3594" x2="147.1748" y1="173.2051" y2="192.451" /><line stroke="rgb(100%,0%,0%)" x1="118.9296" x2="143.08" y1="205.992" y2="209.3301" /><line stroke="rgb(100%,0%,0%)" x1="166.3203" x2="159.7451" y1="231.54" y2="204.4367" /><line stroke="rgb(100%,0%,0%)" x1="147.1748" x2="161.5545" y1="192.451" y2="202.7115" /><line stroke="rgb(100%,0%,0%)" x1="143.08" x2="144.7761" y1="209.3301" y2="191.7467" /><line stroke="rgb(100%,0%,0%)" x1="159.7451" x2="143.6694" y1="204.4367" y2="211.7596" /><line stroke="rgb(100%,0%,0%)" x1="203.75" x2="193.6694" y1="179.7003" y2="221.2531" /><line stroke="rgb(100%,0%,0%)" x1="241.75" x2="211.5545" y1="259.8076" y2="230.3012" /><line stroke="rgb(100%,0%,0%)" x1="153.75" x2="194.7761" y1="253.3124" y2="241.2661" /><line stroke="rgb(100%,0%,0%)" x1="216.3203" x2="209.7451" y1="201.4727" y2="228.576" /><line stroke="rgb(100%,0%,0%)" x1="212.1409" x2="197.1748" y1="259.8076" y2="240.5617" /><line stroke="rgb(100%,0%,0%)" x1="166.3203" x2="193.08" y1="231.54" y2="223.6826" /><line stroke="rgb(100%,0%,0%)" x1="209.7451" x2="193.6694" y1="228.576" y2="221.2531" /><line stroke="rgb(100%,0%,0%)" x1="197.1748" x2="211.5545" y1="240.5617" y2="230.3012" /><line stroke="rgb(100%,0%,0%)" x1="193.08" x2="194.7761" y1="223.6826" y2="241.2661" /><line stroke="rgb(100%,0%,0%)" x1="241.75" x2="216.8768" y1="259.8076" y2="293.6838" /><line stroke="rgb(100%,0%,0%)" x1="154.5" x2="195.8992" y1="267.6018" y2="271.555" /><line stroke="rgb(100%,0%,0%)" x1="204.5" x2="187.2239" y1="338.6159" y2="300.7866" /><line stroke="rgb(100%,0%,0%)" x1="212.1409" x2="198.3879" y1="259.8076" y2="271.7926" /><line stroke="rgb(100%,0%,0%)" x1="171.5388" x2="186.1854" y1="297.1139" y2="298.5125" /><line stroke="rgb(100%,0%,0%)" x1="221.5388" x2="215.4267" y1="309.1039" y2="295.7203" /><line stroke="rgb(100%,0%,0%)" x1="198.3879" x2="216.8768" y1="271.7926" y2="293.6838" /><line stroke="rgb(100%,0%,0%)" x1="186.1854" x2="195.8992" y1="298.5125" y2="271.555" /><line stroke="rgb(100%,0%,0%)" x1="215.4267" x2="187.2239" y1="295.7203" y2="300.7866" /><line stroke="rgb(100%,0%,0%)" x1="254.5" x2="237.2239" y1="267.6018" y2="305.4312" /><line stroke="rgb(100%,0%,0%)" x1="291.0" x2="266.8768" y1="346.4102" y2="312.534" /><line stroke="rgb(100%,0%,0%)" x1="204.5" x2="245.8992" y1="338.6159" y2="334.6628" /><line stroke="rgb(100%,0%,0%)" x1="271.5388" x2="265.4267" y1="297.1139" y2="310.4975" /><line stroke="rgb(100%,0%,0%)" x1="256.9224" x2="248.3879" y1="346.4102" y2="334.4251" /><line stroke="rgb(100%,0%,0%)" x1="221.5388" x2="236.1854" y1="309.1039" y2="307.7053" /><line stroke="rgb(100%,0%,0%)" x1="265.4267" x2="237.2239" y1="310.4975" y2="305.4312" /><line stroke="rgb(100%,0%,0%)" x1="248.3879" x2="266.8768" y1="334.4251" y2="312.534" /><line stroke="rgb(100%,0%,0%)" x1="236.1854" x2="245.8992" y1="307.7053" y2="334.6628" /><line stroke="rgb(100%,0%,0%)" x1="191.0" x2="166.8768" y1="0.0" y2="33.8762" /><line stroke="rgb(100%,0%,0%)" x1="104.5" x2="145.8992" y1="7.7942" y2="11.7474" /><line stroke="rgb(100%,0%,0%)" x1="154.5" x2="137.2239" y1="78.8083" y2="40.9789" /><line stroke="rgb(100%,0%,0%)" x1="156.9224" x2="148.3879" y1="0.0" y2="11.985" /><line stroke="rgb(100%,0%,0%)" x1="121.5388" x2="136.1854" y1="37.3063" y2="38.7049" /><line stroke="rgb(100%,0%,0%)" x1="171.5388" x2="165.4267" y1="49.2963" y2="35.9126" /><line stroke="rgb(100%,0%,0%)" x1="148.3879" x2="166.8768" y1="11.985" y2="33.8762" /><line stroke="rgb(100%,0%,0%)" x1="136.1854" x2="145.8992" y1="38.7049" y2="11.7474" /><line stroke="rgb(100%,0%,0%)" x1="165.4267" x2="137.2239" y1="35.9126" y2="40.9789" /><line stroke="rgb(100%,0%,0%)" x1="204.5" x2="187.2239" y1="7.7942" y2="45.6236" /><line stroke="rgb(100%,0%,0%)" x1="241.75" x2="216.8768" y1="86.6025" y2="52.7263" /><line stroke="rgb(100%,0%,0%)" x1="154.5" x2="195.8992" y1="78.8083" y2="74.8552" /><line stroke="rgb(100%,0%,0%)" x1="221.5388" x2="215.4267" y1="37.3063" y2="50.6899" /><line stroke="rgb(100%,0%,0%)" x1="212.1409" x2="198.3879" y1="86.6025" y2="74.6175" /><line stroke="rgb(100%,0%,0%)" x1="171.5388" x2="186.1854" y1="49.2963" y2="47.8977" /><line stroke="rgb(100%,0%,0%)" x1="215.4267" x2="187.2239" y1="50.6899" y2="45.6236" /><line stroke="rgb(100%,0%,0%)" x1="198.3879" x2="216.8768" y1="74.6175" y2="52.7263" /><line stroke="rgb(100%,0%,0%)" x1="186.1854" x2="195.8992" y1="47.8977" y2="74.8552" /><line stroke="rgb(100%,0%,0%)" x1="241.75" x2="211.5545" y1="86.6025" y2="116.109" /><line stroke="rgb(100%,0%,0%)" x1="153.75" x2="194.7761" y1="93.0977" y2="105.1441" /><line stroke="rgb(100%,0%,0%)" x1="203.75" x2="193.6694" y1="166.7099" y2="125.1571" /><line stroke="rgb(100%,0%,0%)" x1="212.1409" x2="197.1748" y1="86.6025" y2="105.8484" /><line stroke="rgb(100%,0%,0%)" x1="166.3203" x2="193.08" y1="114.8701" y2="122.7275" /><line stroke="rgb(100%,0%,0%)" x1="216.3203" x2="209.7451" y1="144.9375" y2="117.8342" /><line stroke="rgb(100%,0%,0%)" x1="197.1748" x2="211.5545" y1="105.8484" y2="116.109" /><line stroke="rgb(100%,0%,0%)" x1="193.08" x2="194.7761" y1="122.7275" y2="105.1441" /><line stroke="rgb(100%,0%,0%)" x1="209.7451" x2="193.6694" y1="117.8342" y2="125.1571" /><line stroke="rgb(100%,0%,0%)" x1="254.125" x2="243.6694" y1="93.7472" y2="134.6506" /><line stroke="rgb(100%,0%,0%)" x1="292.5" x2="261.5545" y1="173.2051" y2="143.6986" /><line stroke="rgb(100%,0%,0%)" x1="203.75" x2="244.7761" y1="166.7099" y2="154.6635" /><line stroke="rgb(100%,0%,0%)" x1="268.9296" x2="259.7451" y1="119.3895" y2="141.9734" /><line stroke="rgb(100%,0%,0%)" x1="267.3594" x2="247.1748" y1="173.2051" y2="153.9592" /><line stroke="rgb(100%,0%,0%)" x1="216.3203" x2="243.08" y1="144.9375" y2="137.0801" /><line stroke="rgb(100%,0%,0%)" x1="259.7451" x2="243.6694" y1="141.9734" y2="134.6506" /><line stroke="rgb(100%,0%,0%)" x1="247.1748" x2="261.5545" y1="153.9592" y2="143.6986" /><line stroke="rgb(100%,0%,0%)" x1="243.08" x2="244.7761" y1="137.0801" y2="154.6635" /><line stroke="rgb(100%,0%,0%)" x1="292.5" x2="261.5545" y1="173.2051" y2="202.7115" /><line stroke="rgb(100%,0%,0%)" x1="203.75" x2="244.7761" y1="179.7003" y2="191.7467" /><line stroke="rgb(100%,0%,0%)" x1="254.125" x2="243.6694" y1="252.6629" y2="211.7596" /><line stroke="rgb(100%,0%,0%)" x1="267.3594" x2="247.1748" y1="173.2051" y2="192.451" /><line stroke="rgb(100%,0%,0%)" x1="216.3203" x2="243.08" y1="201.4727" y2="209.3301" /><line stroke="rgb(100%,0%,0%)" x1="268.9296" x2="259.7451" y1="227.0207" y2="204.4367" /><line stroke="rgb(100%,0%,0%)" x1="247.1748" x2="261.5545" y1="192.451" y2="202.7115" /><line stroke="rgb(100%,0%,0%)" x1="243.08" x2="244.7761" y1="209.3301" y2="191.7467" /><line stroke="rgb(100%,0%,0%)" x1="259.7451" x2="243.6694" y1="204.4367" y2="211.7596" /><line stroke="rgb(100%,0%,0%)" x1="304.5" x2="287.2239" y1="180.9993" y2="218.8287" /><line stroke="rgb(100%,0%,0%)" x1="341.0" x2="316.8768" y1="259.8076" y2="225.9314" /><line stroke="rgb(100%,0%,0%)" x1="254.125" x2="295.8992" y1="252.6629" y2="248.0602" /><line stroke="rgb(100%,0%,0%)" x1="321.5388" x2="315.4267" y1="210.5114" y2="223.895" /><line stroke="rgb(100%,0%,0%)" x1="306.9224" x2="298.3879" y1="259.8076" y2="247.8226" /><line stroke="rgb(100%,0%,0%)" x1="268.9296" x2="286.1854" y1="227.0207" y2="221.1028" /><line stroke="rgb(100%,0%,0%)" x1="315.4267" x2="287.2239" y1="223.895" y2="218.8287" /><line stroke="rgb(100%,0%,0%)" x1="298.3879" x2="316.8768" y1="247.8226" y2="225.9314" /><line stroke="rgb(100%,0%,0%)" x1="286.1854" x2="295.8992" y1="221.1028" y2="248.0602" /><line stroke="rgb(100%,0%,0%)" x1="341.0" x2="316.8768" y1="259.8076" y2="293.6838" /><line stroke="rgb(100%,0%,0%)" x1="254.5" x2="295.8992" y1="267.6018" y2="271.555" /><line stroke="rgb(100%,0%,0%)" x1="304.5" x2="287.2239" y1="338.6159" y2="300.7866" /><line stroke="rgb(100%,0%,0%)" x1="306.9224" x2="298.3879" y1="259.8076" y2="271.7926" /><line stroke="rgb(100%,0%,0%)" x1="271.5388" x2="286.1854" y1="297.1139" y2="298.5125" /><line stroke="rgb(100%,0%,0%)" x1="321.5388" x2="315.4267" y1="309.1039" y2="295.7203" /><line stroke="rgb(100%,0%,0%)" x1="298.3879" x2="316.8768" y1="271.7926" y2="293.6838" /><line stroke="rgb(100%,0%,0%)" x1="286.1854" x2="295.8992" y1="298.5125" y2="271.555" /><line stroke="rgb(100%,0%,0%)" x1="315.4267" x2="287.2239" y1="295.7203" y2="300.7866" /><line stroke="rgb(100%,0%,0%)" x1="291.0" x2="266.8768" y1="0.0" y2="33.8762" /><line stroke="rgb(100%,0%,0%)" x1="204.5" x2="245.8992" y1="7.7942" y2="11.7474" /><line stroke="rgb(100%,0%,0%)" x1="254.5" x2="237.2239" y1="78.8083" y2="40.9789" /><line stroke="rgb(100%,0%,0%)" x1="256.9224" x2="248.3879" y1="0.0" y2="11.985" /><line stroke="rgb(100%,0%,0%)" x1="221.5388" x2="236.1854" y1="37.3063" y2="38.7049" /><line stroke="rgb(100%,0%,0%)" x1="271.5388" x2="265.4267" y1="49.2963" y2="35.9126" /><line stroke="rgb(100%,0%,0%)" x1="248.3879" x2="266.8768" y1="11.985" y2="33.8762" /><line stroke="rgb(100%,0%,0%)" x1="236.1854" x2="245.8992" y1="38.7049" y2="11.7474" /><line stroke="rgb(100%,0%,0%)" x1="265.4267" x2="237.2239" y1="35.9126" y2="40.9789" /><line stroke="rgb(100%,0%,0%)" x1="304.5" x2="287.2239" y1="7.7942" y2="45.6236" /><line stroke="rgb(100%,0%,0%)" x1="341.0" x2="316.8768" y1="86.6025" y2="52.7263" /><line stroke="rgb(100%,0%,0%)" x1="254.5" x2="295.8992" y1="78.8083" y2="74.8552" /><line stroke="rgb(100%,0%,0%)" x1="321.5388" x2="315.4267" y1="37.3063" y2="50.6899" /><line stroke="rgb(100%,0%,0%)" x1="306.9224" x2="298.3879" y1="86.6025" y2="74.6175" /><line stroke="rgb(100%,0%,0%)" x1="271.5388" x2="286.1854" y1="49.2963" y2="47.8977" /><line stroke="rgb(100%,0%,0%)" x1="315.4267" x2="287.2239" y1="50.6899" y2="45.6236" /><line stroke="rgb(100%,0%,0%)" x1="298.3879" x2="316.8768" y1="74.6175" y2="52.7263" /><line stroke="rgb(100%,0%,0%)" x1="286.1854" x2="295.8992" y1="47.8977" y2="74.8552" /><line stroke="rgb(100%,0%,0%)" x1="341.0" x2="316.8768" y1="86.6025" y2="120.4788" /><line stroke="rgb(100%,0%,0%)" x1="254.125" x2="295.8992" y1="93.7472" y2="98.3499" /><line stroke="rgb(100%,0%,0%)" x1="304.5" x2="287.2239" y1="165.4109" y2="127.5815" /><line stroke="rgb(100%,0%,0%)" x1="306.9224" x2="298.3879" y1="86.6025" y2="98.5876" /><line stroke="rgb(100%,0%,0%)" x1="268.9296" x2="286.1854" y1="119.3895" y2="125.3074" /><line stroke="rgb(100%,0%,0%)" x1="321.5388" x2="315.4267" y1="135.8988" y2="122.5152" /><line stroke="rgb(100%,0%,0%)" x1="298.3879" x2="316.8768" y1="98.5876" y2="120.4788" /><line stroke="rgb(100%,0%,0%)" x1="286.1854" x2="295.8992" y1="125.3074" y2="98.3499" /><line stroke="rgb(100%,0%,0%)" x1="315.4267" x2="287.2239" y1="122.5152" y2="127.5815" /><line stroke="rgb(100%,0%,0%)" x1="354.5" x2="337.2239" y1="94.3968" y2="132.2261" /><line stroke="rgb(100%,0%,0%)" x1="391.0" x2="366.8768" y1="173.2051" y2="139.3289" /><line stroke="rgb(100%,0%,0%)" x1="304.5" x2="345.8992" y1="165.4109" y2="161.4577" /><line stroke="rgb(100%,0%,0%)" x1="371.5388" x2="365.4267" y1="123.9088" y2="137.2924" /><line stroke="rgb(100%,0%,0%)" x1="356.9224" x2="348.3879" y1="173.2051" y2="161.2201" /><line stroke="rgb(100%,0%,0%)" x1="321.5388" x2="336.1854" y1="135.8988" y2="134.5002" /><line stroke="rgb(100%,0%,0%)" x1="365.4267" x2="337.2239" y1="137.2924" y2="132.2261" /><line stroke="rgb(100%,0%,0%)" x1="348.3879" x2="366.8768" y1="161.2201" y2="139.3289" /><line stroke="rgb(100%,0%,0%)" x1="336.1854" x2="345.8992" y1="134.5002" y2="161.4577" /><line stroke="rgb(100%,0%,0%)" x1="391.0" x2="366.8768" y1="173.2051" y2="207.0813" /><line stroke="rgb(100%,0%,0%)" x1="304.5" x2="345.8992" y1="180.9993" y2="184.9525" /><line stroke="rgb(100%,0%,0%)" x1="354.5" x2="337.2239" y1="252.0134" y2="214.184" /><line stroke="rgb(100%,0%,0%)" x1="356.9224" x2="348.3879" y1="173.2051" y2="185.1901" /><line stroke="rgb(100%,0%,0%)" x1="321.5388" x2="336.1854" y1="210.5114" y2="211.9099" /><line stroke="rgb(100%,0%,0%)" x1="371.5388" x2="365.4267" y1="222.5013" y2="209.1177" /><line stroke="rgb(100%,0%,0%)" x1="348.3879" x2="366.8768" y1="185.1901" y2="207.0813" /><line stroke="rgb(100%,0%,0%)" x1="336.1854" x2="345.8992" y1="211.9099" y2="184.9525" /><line stroke="rgb(100%,0%,0%)" x1="365.4267" x2="337.2239" y1="209.1177" y2="214.184" /></svg>