<?xml version="1.0" encoding="utf-8" ?>
<svg baseProfile="tiny" height="100%" version="1.2" width="100%" xmlns="http://www.w3.org/2000/svg" xmlns:ev="http://www.w3.org/2001/xml-events" xmlns:xlink="http://www.w3.org/1999/xlink"><defs /><line stroke="rgb(100%,0%,0%)" x1="53.0" x2="31.3156" y1="91.7987" y2="159.6335" /><line stroke="rgb(100%,0%,0%)" x1="94.0" x2="46.0955" y1="173.2051" y2="120.5084" /><line stroke="rgb(100%,0%,0%)" x1="3.0" x2="72.5889" y1="168.0089" y2="152.8708" /><line stroke="rgb(100%,0%,0%)" x1="94.0" x2="46.0955" y1="173.2051" y2="225.9017" /><line stroke="rgb(100%,0%,0%)" x1="3.0" x2="72.5889" y1="178.4012" y2="193.5394" /><line stroke="rgb(100%,0%,0%)" x1="53.0" x2="31.3156" y1="254.6115" y2="186.7766" /><line stroke="rgb(100%,0%,0%)" x1="103.2538" x2="81.3156" y1="177.6072" y2="246.2361" /><line stroke="rgb(100%,0%,0%)" x1="144.0" x2="96.0955" y1="259.8076" y2="207.111" /><line stroke="rgb(100%,0%,0%)" x1="53.0" x2="122.5889" y1="254.6115" y2="239.4733" /><line stroke="rgb(100%,0%,0%)" x1="144.0" x2="96.0955" y1="259.8076" y2="312.5043" /><line stroke="rgb(100%,0%,0%)" x1="53.0" x2="122.5889" y1="265.0038" y2="280.1419" /><line stroke="rgb(100%,0%,0%)" x1="103.0" x2="81.3156" y1="341.214" y2="273.3792" /><line stroke="rgb(100%,0%,0%)" x1="153.0" x2="131.3156" y1="265.0038" y2="332.8386" /><line stroke="rgb(100%,0%,0%)" x1="194.0" x2="146.0955" y1="346.4102" y2="293.7135" /><line stroke="rgb(100%,0%,0%)" x1="103.0" x2="172.5889" y1="341.214" y2="326.0758" /><line stroke="rgb(100%,0%,0%)" x1="103.0" x2="81.3156" y1="5.1962" y2="73.031" /><line stroke="rgb(100%,0%,0%)" x1="144.0" x2="96.0955" y1="86.6025" y2="33.9059" /><line stroke="rgb(100%,0%,0%)" x1="53.0" x2="122.5889" y1="81.4064" y2="66.2682" /><line stroke="rgb(100%,0%,0%)" x1="144.0" x2="96.0955" y1="86.6025" y2="139.2992" /><line stroke="rgb(100%,0%,0%)" x1="53.0" x2="122.5889" y1="91.7987" y2="106.9369" /><line stroke="rgb(100%,0%,0%)" x1="103.2538" x2="81.3156" y1="168.803" y2="100.1741" /><line stroke="rgb(100%,0%,0%)" x1="152.5" x2="118.6003" y1="90.9327" y2="165.1626" /><line stroke="rgb(100%,0%,0%)" x1="195.0" x2="147.6648" y1="173.2051" y2="106.7321" /><line stroke="rgb(100%,0%,0%)" x1="103.2538" x2="183.7349" y1="168.803" y2="161.1179" /><line stroke="rgb(100%,0%,0%)" x1="195.0" x2="147.6648" y1="173.2051" y2="239.678" /><line stroke="rgb(100%,0%,0%)" x1="103.2538" x2="183.7349" y1="177.6072" y2="185.2922" /><line stroke="rgb(100%,0%,0%)" x1="152.5" x2="118.6003" y1="255.4775" y2="181.2475" /><line stroke="rgb(100%,0%,0%)" x1="202.5" x2="168.6003" y1="177.5352" y2="251.7652" /><line stroke="rgb(100%,0%,0%)" x1="244.5607" x2="197.6648" y1="259.1908" y2="193.3347" /><line stroke="rgb(100%,0%,0%)" x1="152.5" x2="233.7349" y1="255.4775" y2="247.7205" /><line stroke="rgb(100%,0%,0%)" x1="244.5607" x2="196.0955" y1="259.1908" y2="312.5043" /><line stroke="rgb(100%,0%,0%)" x1="153.0" x2="222.5889" y1="265.0038" y2="280.1419" /><line stroke="rgb(100%,0%,0%)" x1="203.0" x2="181.3156" y1="341.214" y2="273.3792" /><line stroke="rgb(100%,0%,0%)" x1="253.0" x2="231.3156" y1="265.0038" y2="332.8386" /><line stroke="rgb(100%,0%,0%)" x1="294.0" x2="246.0955" y1="346.4102" y2="293.7135" /><line stroke="rgb(100%,0%,0%)" x1="203.0" x2="272.5889" y1="341.214" y2="326.0758" /><line stroke="rgb(100%,0%,0%)" x1="194.0" x2="146.0955" y1="0.0" y2="52.6967" /><line stroke="rgb(100%,0%,0%)" x1="103.0" x2="172.5889" y1="5.1962" y2="20.3343" /><line stroke="rgb(100%,0%,0%)" x1="153.0" x2="131.3156" y1="81.4064" y2="13.5715" /><line stroke="rgb(100%,0%,0%)" x1="203.0" x2="181.3156" y1="5.1962" y2="73.031" /><line stroke="rgb(100%,0%,0%)" x1="244.5607" x2="196.0955" y1="87.2194" y2="33.9059" /><line stroke="rgb(100%,0%,0%)" x1="153.0" x2="222.5889" y1="81.4064" y2="66.2682" /><line stroke="rgb(100%,0%,0%)" x1="244.5607" x2="197.6648" y1="87.2194" y2="153.0755" /><line stroke="rgb(100%,0%,0%)" x1="152.5" x2="233.7349" y1="90.9327" y2="98.6897" /><line stroke="rgb(100%,0%,0%)" x1="202.5" x2="168.6003" y1="168.875" y2="94.645" /><line stroke="rgb(100%,0%,0%)" x1="252.1854" x2="218.6003" y1="91.6215" y2="165.1626" /><line stroke="rgb(100%,0%,0%)" x1="295.0" x2="247.6648" y1="173.2051" y2="106.7321" /><line stroke="rgb(100%,0%,0%)" x1="202.5" x2="283.7349" y1="168.875" y2="161.1179" /><line stroke="rgb(100%,0%,0%)" x1="295.0" x2="247.6648" y1="173.2051" y2="239.678" /><line stroke="rgb(100%,0%,0%)" x1="202.5" x2="283.7349" y1="177.5352" y2="185.2922" /><line stroke="rgb(100%,0%,0%)" x1="252.1854" x2="218.6003" y1="254.7887" y2="181.2475" /><line stroke="rgb(100%,0%,0%)" x1="303.0" x2="281.3156" y1="178.4012" y2="246.2361" /><line stroke="rgb(100%,0%,0%)" x1="344.0" x2="296.0955" y1="259.8076" y2="207.111" /><line stroke="rgb(100%,0%,0%)" x1="252.1854" x2="322.5889" y1="254.7887" y2="239.4733" /><line stroke="rgb(100%,0%,0%)" x1="344.0" x2="296.0955" y1="259.8076" y2="312.5043" /><line stroke="rgb(100%,0%,0%)" x1="253.0" x2="322.5889" y1="265.0038" y2="280.1419" /><line stroke="rgb(100%,0%,0%)" x1="303.0" x2="281.3156" y1="341.214" y2="273.3792" /><line stroke="rgb(100%,0%,0%)" x1="294.0" x2="246.0955" y1="0.0" y2="52.6967" /><line stroke="rgb(100%,0%,0%)" x1="203.0" x2="272.5889" y1="5.1962" y2="20.3343" /><line stroke="rgb(100%,0%,0%)" x1="253.0" x2="231.3156" y1="81.4064" y2="13.5715" /><line stroke="rgb(100%,0%,0%)" x1="303.0" x2="281.3156" y1="5.1962" y2="73.031" /><line stroke="rgb(100%,0%,0%)" x1="344.0" x2="296.0955" y1="86.6025" y2="33.9059" /><line stroke="rgb(100%,0%,0%)" x1="253.0" x2="322.5889" y1="81.4064" y2="66.2682" /><line stroke="rgb(100%,0%,0%)" x1="344.0" x2="296.0955" y1="86.6025" y2="139.2992" /><line stroke="rgb(100%,0%,0%)" x1="252.1854" x2="322.5889" y1="91.6215" y2="106.9369" /><line stroke="rgb(100%,0%,0%)" x1="303.0" x2="281.3156" y1="168.0089" y2="100.1741" /><line stroke="rgb(100%,0%,0%)" x1="353.0" x2="331.3156" y1="91.7987" y2="159.6335" /><line stroke="rgb(100%,0%,0%)" x1="394.0" x2="346.0955" y1="173.2051" y2="120.5084" /><line stroke="rgb(100%,0%,0%)" x1="303.0" x2="372.5889" y1="168.0089" y2="152.8708" /><line stroke="rgb(100%,0%,0%)" x1="394.0" x2="346.0955" y1="173.2051" y2="225.9017" /><line stroke="rgb(100%,0%,0%)" x1="303.0" x2="372.5889" y1="178.4012" y2="193.5394" /><line stroke="rgb(100%,0%,0%)" x1="353.0" x2="331.3156" y1="254.6115" y2="186.7766" /></svg>