<?xml version="1.0" encoding="utf-8" ?>
<svg baseProfile="tiny" height="100%" version="1.2" width="100%" xmlns="http://www.w3.org/2000/svg" xmlns:ev="http://www.w3.org/2001/xml-events" xmlns:xlink="http://www.w3.org/1999/xlink"><defs /><line stroke="rgb(100%,0%,0%)" x1="200" x2="275.0" y1="200" y2="329.9038" /><line stroke="rgb(100%,0%,0%)" x1="275.0" x2="350.0" y1="329.9038" y2="200.0" /><line stroke="rgb(100%,0%,0%)" x1="350.0" x2="200" y1="200.0" y2="200" /><line stroke="rgb(100%,0%,0%)" x1="215.0" x2="306.8546" y1="225.9808" y2="217.9445" /><line stroke="rgb(100%,0%,0%)" x1="290.0" x2="237.1131" y1="303.923" y2="228.3928" /><line stroke="rgb(100%,0%,0%)" x1="320.0" x2="281.0323" y1="200.0" y2="283.5665" /><line stroke="rgb(100%,0%,0%)" x1="200" x2="125.0" y1="200" y2="329.9038" /><line stroke="rgb(100%,0%,0%)" x1="125.0" x2="275.0" y1="329.9038" y2="329.9038" /><line stroke="rgb(100%,0%,0%)" x1="275.0" x2="200" y1="329.9038" y2="200" /><line stroke="rgb(100%,0%,0%)" x1="215.0" x2="162.1131" y1="225.9808" y2="301.511" /><line stroke="rgb(100%,0%,0%)" x1="245.0" x2="206.0323" y1="329.9038" y2="246.3373" /><line stroke="rgb(100%,0%,0%)" x1="140.0" x2="231.8546" y1="303.923" y2="311.9593" /><line stroke="rgb(100%,0%,0%)" x1="200" x2="50.0" y1="200" y2="200.0" /><line stroke="rgb(100%,0%,0%)" x1="50.0" x2="125.0" y1="200.0" y2="329.9038" /><line stroke="rgb(100%,0%,0%)" x1="125.0" x2="200" y1="329.9038" y2="200" /><line stroke="rgb(100%,0%,0%)" x1="170.0" x2="131.0323" y1="200.0" y2="283.5665" /><line stroke="rgb(100%,0%,0%)" x1="65.0" x2="156.8546" y1="225.9808" y2="217.9445" /><line stroke="rgb(100%,0%,0%)" x1="140.0" x2="87.1131" y1="303.923" y2="228.3928" /><line stroke="rgb(100%,0%,0%)" x1="200" x2="125.0" y1="200" y2="70.0962" /><line stroke="rgb(100%,0%,0%)" x1="125.0" x2="50.0" y1="70.0962" y2="200.0" /><line stroke="rgb(100%,0%,0%)" x1="50.0" x2="200" y1="200.0" y2="200" /><line stroke="rgb(100%,0%,0%)" x1="170.0" x2="131.0323" y1="200.0" y2="116.4335" /><line stroke="rgb(100%,0%,0%)" x1="65.0" x2="156.8546" y1="174.0192" y2="182.0555" /><line stroke="rgb(100%,0%,0%)" x1="140.0" x2="87.1131" y1="96.077" y2="171.6072" /><line stroke="rgb(100%,0%,0%)" x1="200" x2="275.0" y1="200" y2="70.0962" /><line stroke="rgb(100%,0%,0%)" x1="275.0" x2="125.0" y1="70.0962" y2="70.0962" /><line stroke="rgb(100%,0%,0%)" x1="125.0" x2="200" y1="70.0962" y2="200" /><line stroke="rgb(100%,0%,0%)" x1="215.0" x2="162.1131" y1="174.0192" y2="98.489" /><line stroke="rgb(100%,0%,0%)" x1="245.0" x2="206.0323" y1="70.0962" y2="153.6627" /><line stroke="rgb(100%,0%,0%)" x1="140.0" x2="231.8546" y1="96.077" y2="88.0407" /><line stroke="rgb(100%,0%,0%)" x1="200" x2="350.0" y1="200" y2="200.0" /><line stroke="rgb(100%,0%,0%)" x1="350.0" x2="275.0" y1="200.0" y2="70.0962" /><line stroke="rgb(100%,0%,0%)" x1="275.0" x2="200" y1="70.0962" y2="200" /><line stroke="rgb(100%,0%,0%)" x1="215.0" x2="306.8546" y1="174.0192" y2="182.0555" /><line stroke="rgb(100%,0%,0%)" x1="290.0" x2="237.1131" y1="96.077" y2="171.6072" /><line stroke="rgb(100%,0%,0%)" x1="320.0" x2="281.0323" y1="200.0" y2="116.4335" /></svg>