<?xml version="1.0" encoding="utf-8" ?>
<svg baseProfile="tiny" height="100%" version="1.2" width="100%" xmlns="http://www.w3.org/2000/svg" xmlns:ev="http://www.w3.org/2001/xml-events" xmlns:xlink="http://www.w3.org/1999/xlink"><defs /><line stroke="rgb(100%,0%,0%)" x1="200" x2="275.0" y1="200" y2="329.9038" /><line stroke="rgb(100%,0%,0%)" x1="275.0" x2="350.0" y1="329.9038" y2="200.0" /><line stroke="rgb(100%,0%,0%)" x1="350.0" x2="200" y1="200.0" y2="200" /><line stroke="rgb(100%,0%,0%)" x1="205.0" x2="287.2609" y1="208.6603" y2="238.6008" /><line stroke="rgb(100%,0%,0%)" x1="280.0" x2="264.7988" y1="321.2436" y2="235.0333" /><line stroke="rgb(100%,0%,0%)" x1="340.0" x2="272.9403" y1="200.0" y2="256.2698" /><line stroke="rgb(100%,0%,0%)" x1="200" x2="125.0" y1="200" y2="329.9038" /><line stroke="rgb(100%,0%,0%)" x1="125.0" x2="275.0" y1="329.9038" y2="329.9038" /><line stroke="rgb(100%,0%,0%)" x1="275.0" x2="200" y1="329.9038" y2="200" /><line stroke="rgb(100%,0%,0%)" x1="205.0" x2="189.7988" y1="208.6603" y2="294.8705" /><line stroke="rgb(100%,0%,0%)" x1="265.0" x2="197.9403" y1="329.9038" y2="273.634" /><line stroke="rgb(100%,0%,0%)" x1="130.0" x2="212.2609" y1="321.2436" y2="291.303" /><line stroke="rgb(100%,0%,0%)" x1="200" x2="50.0" y1="200" y2="200.0" /><line stroke="rgb(100%,0%,0%)" x1="50.0" x2="125.0" y1="200.0" y2="329.9038" /><line stroke="rgb(100%,0%,0%)" x1="125.0" x2="200" y1="329.9038" y2="200" /><line stroke="rgb(100%,0%,0%)" x1="190.0" x2="122.9403" y1="200.0" y2="256.2698" /><line stroke="rgb(100%,0%,0%)" x1="55.0" x2="137.2609" y1="208.6603" y2="238.6008" /><line stroke="rgb(100%,0%,0%)" x1="130.0" x2="114.7988" y1="321.2436" y2="235.0333" /><line stroke="rgb(100%,0%,0%)" x1="200" x2="125.0" y1="200" y2="70.0962" /><line stroke="rgb(100%,0%,0%)" x1="125.0" x2="50.0" y1="70.0962" y2="200.0" /><line stroke="rgb(100%,0%,0%)" x1="50.0" x2="200" y1="200.0" y2="200" /><line stroke="rgb(100%,0%,0%)" x1="190.0" x2="122.9403" y1="200.0" y2="143.7302" /><line stroke="rgb(100%,0%,0%)" x1="55.0" x2="137.2609" y1="191.3397" y2="161.3992" /><line stroke="rgb(100%,0%,0%)" x1="130.0" x2="114.7988" y1="78.7564" y2="164.9667" /><line stroke="rgb(100%,0%,0%)" x1="200" x2="275.0" y1="200" y2="70.0962" /><line stroke="rgb(100%,0%,0%)" x1="275.0" x2="125.0" y1="70.0962" y2="70.0962" /><line stroke="rgb(100%,0%,0%)" x1="125.0" x2="200" y1="70.0962" y2="200" /><line stroke="rgb(100%,0%,0%)" x1="205.0" x2="189.7988" y1="191.3397" y2="105.1295" /><line stroke="rgb(100%,0%,0%)" x1="265.0" x2="197.9403" y1="70.0962" y2="126.366" /><line stroke="rgb(100%,0%,0%)" x1="130.0" x2="212.2609" y1="78.7564" y2="108.697" /><line stroke="rgb(100%,0%,0%)" x1="200" x2="350.0" y1="200" y2="200.0" /><line stroke="rgb(100%,0%,0%)" x1="350.0" x2="275.0" y1="200.0" y2="70.0962" /><line stroke="rgb(100%,0%,0%)" x1="275.0" x2="200" y1="70.0962" y2="200" /><line stroke="rgb(100%,0%,0%)" x1="205.0" x2="287.2609" y1="191.3397" y2="161.3992" /><line stroke="rgb(100%,0%,0%)" x1="280.0" x2="264.7988" y1="78.7564" y2="164.9667" /><line stroke="rgb(100%,0%,0%)" x1="340.0" x2="272.9403" y1="200.0" y2="143.7302" /></svg>