<?xml version="1.0" encoding="utf-8" ?>
<svg baseProfile="tiny" height="100%" version="1.2" width="100%" xmlns="http://www.w3.org/2000/svg" xmlns:ev="http://www.w3.org/2001/xml-events" xmlns:xlink="http://www.w3.org/1999/xlink"><defs /><line stroke="rgb(100%,0%,0%)" x1="200" x2="275.0" y1="200" y2="329.9038" /><line stroke="rgb(100%,0%,0%)" x1="275.0" x2="350.0" y1="329.9038" y2="200.0" /><line stroke="rgb(100%,0%,0%)" x1="350.0" x2="200" y1="200.0" y2="200" /><line stroke="rgb(100%,0%,0%)" x1="210.0" x2="296.9491" y1="217.3205" y2="232.652" /><line stroke="rgb(100%,0%,0%)" x1="285.0" x2="254.8029" y1="312.5833" y2="229.6174" /><line stroke="rgb(100%,0%,0%)" x1="330.0" x2="273.248" y1="200.0" y2="267.6344" /><line stroke="rgb(100%,0%,0%)" x1="200" x2="125.0" y1="200" y2="329.9038" /><line stroke="rgb(100%,0%,0%)" x1="125.0" x2="275.0" y1="329.9038" y2="329.9038" /><line stroke="rgb(100%,0%,0%)" x1="275.0" x2="200" y1="329.9038" y2="200" /><line stroke="rgb(100%,0%,0%)" x1="210.0" x2="179.8029" y1="217.3205" y2="300.2864" /><line stroke="rgb(100%,0%,0%)" x1="255.0" x2="198.248" y1="329.9038" y2="262.2694" /><line stroke="rgb(100%,0%,0%)" x1="135.0" x2="221.9491" y1="312.5833" y2="297.2518" /><line stroke="rgb(100%,0%,0%)" x1="200" x2="50.0" y1="200" y2="200.0" /><line stroke="rgb(100%,0%,0%)" x1="50.0" x2="125.0" y1="200.0" y2="329.9038" /><line stroke="rgb(100%,0%,0%)" x1="125.0" x2="200" y1="329.9038" y2="200" /><line stroke="rgb(100%,0%,0%)" x1="180.0" x2="123.248" y1="200.0" y2="267.6344" /><line stroke="rgb(100%,0%,0%)" x1="60.0" x2="146.9491" y1="217.3205" y2="232.652" /><line stroke="rgb(100%,0%,0%)" x1="135.0" x2="104.8029" y1="312.5833" y2="229.6174" /><line stroke="rgb(100%,0%,0%)" x1="200" x2="125.0" y1="200" y2="70.0962" /><line stroke="rgb(100%,0%,0%)" x1="125.0" x2="50.0" y1="70.0962" y2="200.0" /><line stroke="rgb(100%,0%,0%)" x1="50.0" x2="200" y1="200.0" y2="200" /><line stroke="rgb(100%,0%,0%)" x1="180.0" x2="123.248" y1="200.0" y2="132.3656" /><line stroke="rgb(100%,0%,0%)" x1="60.0" x2="146.9491" y1="182.6795" y2="167.348" /><line stroke="rgb(100%,0%,0%)" x1="135.0" x2="104.8029" y1="87.4167" y2="170.3826" /><line stroke="rgb(100%,0%,0%)" x1="200" x2="275.0" y1="200" y2="70.0962" /><line stroke="rgb(100%,0%,0%)" x1="275.0" x2="125.0" y1="70.0962" y2="70.0962" /><line stroke="rgb(100%,0%,0%)" x1="125.0" x2="200" y1="70.0962" y2="200" /><line stroke="rgb(100%,0%,0%)" x1="210.0" x2="179.8029" y1="182.6795" y2="99.7136" /><line stroke="rgb(100%,0%,0%)" x1="255.0" x2="198.248" y1="70.0962" y2="137.7306" /><line stroke="rgb(100%,0%,0%)" x1="135.0" x2="221.9491" y1="87.4167" y2="102.7482" /><line stroke="rgb(100%,0%,0%)" x1="200" x2="350.0" y1="200" y2="200.0" /><line stroke="rgb(100%,0%,0%)" x1="350.0" x2="275.0" y1="200.0" y2="70.0962" /><line stroke="rgb(100%,0%,0%)" x1="275.0" x2="200" y1="70.0962" y2="200" /><line stroke="rgb(100%,0%,0%)" x1="210.0" x2="296.9491" y1="182.6795" y2="167.348" /><line stroke="rgb(100%,0%,0%)" x1="285.0" x2="254.8029" y1="87.4167" y2="170.3826" /><line stroke="rgb(100%,0%,0%)" x1="330.0" x2="273.248" y1="200.0" y2="132.3656" /></svg>