<?xml version="1.0" encoding="utf-8" ?>
<svg baseProfile="tiny" height="100%" version="1.2" width="100%" xmlns="http://www.w3.org/2000/svg" xmlns:ev="http://www.w3.org/2001/xml-events" xmlns:xlink="http://www.w3.org/1999/xlink"><defs /><line stroke="rgb(100%,0%,0%)" x1="44.4139" x2="31.3156" y1="118.6585" y2="159.6335" /><line stroke="rgb(100%,0%,0%)" x1="75.0318" x2="46.0955" y1="152.3393" y2="120.5084" /><line stroke="rgb(100%,0%,0%)" x1="3.0" x2="72.5889" y1="168.0089" y2="152.8708" /><line stroke="rgb(100%,0%,0%)" x1="75.0318" x2="94.0" y1="152.3393" y2="173.2051" /><line stroke="rgb(100%,0%,0%)" x1="44.4139" x2="53.0" y1="118.6585" y2="91.7987" /><line stroke="rgb(100%,0%,0%)" x1="75.0318" x2="46.0955" y1="194.0708" y2="225.9017" /><line stroke="rgb(100%,0%,0%)" x1="3.0" x2="72.5889" y1="178.4012" y2="193.5394" /><line stroke="rgb(100%,0%,0%)" x1="44.4139" x2="31.3156" y1="227.7516" y2="186.7766" /><line stroke="rgb(100%,0%,0%)" x1="44.4139" x2="53.0" y1="227.7516" y2="254.6115" /><line stroke="rgb(100%,0%,0%)" x1="75.0318" x2="94.0" y1="194.0708" y2="173.2051" /><line stroke="rgb(100%,0%,0%)" x1="94.4139" x2="81.3156" y1="205.2611" y2="246.2361" /><line stroke="rgb(100%,0%,0%)" x1="125.0318" x2="96.0955" y1="238.9419" y2="207.111" /><line stroke="rgb(100%,0%,0%)" x1="80.5544" x2="122.5889" y1="248.6174" y2="239.4733" /><line stroke="rgb(100%,0%,0%)" x1="80.5544" x2="53.0" y1="248.6174" y2="254.6115" /><line stroke="rgb(100%,0%,0%)" x1="125.0318" x2="144.0" y1="238.9419" y2="259.8076" /><line stroke="rgb(100%,0%,0%)" x1="94.4139" x2="102.25" y1="205.2611" y2="177.1022" /><line stroke="rgb(100%,0%,0%)" x1="125.0318" x2="96.0955" y1="280.6734" y2="312.5043" /><line stroke="rgb(100%,0%,0%)" x1="53.0" x2="122.5889" y1="265.0038" y2="280.1419" /><line stroke="rgb(100%,0%,0%)" x1="94.4139" x2="81.3156" y1="314.3542" y2="273.3792" /><line stroke="rgb(100%,0%,0%)" x1="94.4139" x2="103.0" y1="314.3542" y2="341.214" /><line stroke="rgb(100%,0%,0%)" x1="125.0318" x2="144.0" y1="280.6734" y2="259.8076" /><line stroke="rgb(100%,0%,0%)" x1="144.4139" x2="131.3156" y1="291.8636" y2="332.8386" /><line stroke="rgb(100%,0%,0%)" x1="194.0" x2="146.0955" y1="346.4102" y2="293.7135" /><line stroke="rgb(100%,0%,0%)" x1="130.5544" x2="172.5889" y1="335.2199" y2="326.0758" /><line stroke="rgb(100%,0%,0%)" x1="130.5544" x2="103.0" y1="335.2199" y2="341.214" /><line stroke="rgb(100%,0%,0%)" x1="144.4139" x2="153.0" y1="291.8636" y2="265.0038" /><line stroke="rgb(100%,0%,0%)" x1="94.4139" x2="81.3156" y1="32.056" y2="73.031" /><line stroke="rgb(100%,0%,0%)" x1="125.0318" x2="96.0955" y1="65.7368" y2="33.9059" /><line stroke="rgb(100%,0%,0%)" x1="53.0" x2="122.5889" y1="81.4064" y2="66.2682" /><line stroke="rgb(100%,0%,0%)" x1="125.0318" x2="144.0" y1="65.7368" y2="86.6025" /><line stroke="rgb(100%,0%,0%)" x1="94.4139" x2="103.0" y1="32.056" y2="5.1962" /><line stroke="rgb(100%,0%,0%)" x1="125.0318" x2="96.0955" y1="107.4683" y2="139.2992" /><line stroke="rgb(100%,0%,0%)" x1="80.5544" x2="122.5889" y1="97.7928" y2="106.9369" /><line stroke="rgb(100%,0%,0%)" x1="94.4139" x2="81.3156" y1="141.1491" y2="100.1741" /><line stroke="rgb(100%,0%,0%)" x1="94.4139" x2="102.25" y1="141.1491" y2="169.308" /><line stroke="rgb(100%,0%,0%)" x1="80.5544" x2="53.0" y1="97.7928" y2="91.7987" /><line stroke="rgb(100%,0%,0%)" x1="125.0318" x2="144.0" y1="107.4683" y2="86.6025" /><line stroke="rgb(100%,0%,0%)" x1="145.9049" x2="115.9462" y1="101.4521" y2="167.0526" /><line stroke="rgb(100%,0%,0%)" x1="189.1874" x2="147.3551" y1="162.2339" y2="103.4886" /><line stroke="rgb(100%,0%,0%)" x1="114.9077" x2="186.6987" y1="169.3267" y2="162.4715" /><line stroke="rgb(100%,0%,0%)" x1="114.9077" x2="102.25" y1="169.3267" y2="169.308" /><line stroke="rgb(100%,0%,0%)" x1="189.1874" x2="197.0" y1="162.2339" y2="173.2051" /><line stroke="rgb(100%,0%,0%)" x1="145.9049" x2="151.5" y1="101.4521" y2="89.2006" /><line stroke="rgb(100%,0%,0%)" x1="189.1874" x2="147.3551" y1="184.1763" y2="242.9216" /><line stroke="rgb(100%,0%,0%)" x1="114.9077" x2="186.6987" y1="177.0834" y2="183.9387" /><line stroke="rgb(100%,0%,0%)" x1="145.9049" x2="115.9462" y1="244.958" y2="179.3575" /><line stroke="rgb(100%,0%,0%)" x1="145.9049" x2="151.5" y1="244.958" y2="257.2095" /><line stroke="rgb(100%,0%,0%)" x1="114.9077" x2="102.25" y1="177.0834" y2="177.1022" /><line stroke="rgb(100%,0%,0%)" x1="189.1874" x2="197.0" y1="184.1763" y2="173.2051" /><line stroke="rgb(100%,0%,0%)" x1="195.9049" x2="165.9462" y1="188.0547" y2="253.6552" /><line stroke="rgb(100%,0%,0%)" x1="239.1874" x2="197.3551" y1="248.8364" y2="190.0911" /><line stroke="rgb(100%,0%,0%)" x1="164.9077" x2="236.6987" y1="255.9293" y2="249.074" /><line stroke="rgb(100%,0%,0%)" x1="164.9077" x2="151.5" y1="255.9293" y2="257.2095" /><line stroke="rgb(100%,0%,0%)" x1="239.1874" x2="245.5" y1="248.8364" y2="259.8076" /><line stroke="rgb(100%,0%,0%)" x1="195.9049" x2="201.5" y1="188.0547" y2="175.8032" /><line stroke="rgb(100%,0%,0%)" x1="225.0318" x2="196.0955" y1="280.6734" y2="312.5043" /><line stroke="rgb(100%,0%,0%)" x1="180.5544" x2="222.5889" y1="270.9979" y2="280.1419" /><line stroke="rgb(100%,0%,0%)" x1="194.4139" x2="181.3156" y1="314.3542" y2="273.3792" /><line stroke="rgb(100%,0%,0%)" x1="194.4139" x2="203.0" y1="314.3542" y2="341.214" /><line stroke="rgb(100%,0%,0%)" x1="180.5544" x2="153.0" y1="270.9979" y2="265.0038" /><line stroke="rgb(100%,0%,0%)" x1="225.0318" x2="245.5" y1="280.6734" y2="259.8076" /><line stroke="rgb(100%,0%,0%)" x1="244.4139" x2="231.3156" y1="291.8636" y2="332.8386" /><line stroke="rgb(100%,0%,0%)" x1="294.0" x2="246.0955" y1="346.4102" y2="293.7135" /><line stroke="rgb(100%,0%,0%)" x1="230.5544" x2="272.5889" y1="335.2199" y2="326.0758" /><line stroke="rgb(100%,0%,0%)" x1="230.5544" x2="203.0" y1="335.2199" y2="341.214" /><line stroke="rgb(100%,0%,0%)" x1="244.4139" x2="253.0" y1="291.8636" y2="265.0038" /><line stroke="rgb(100%,0%,0%)" x1="194.0" x2="146.0955" y1="0.0" y2="52.6967" /><line stroke="rgb(100%,0%,0%)" x1="130.5544" x2="172.5889" y1="11.1903" y2="20.3343" /><line stroke="rgb(100%,0%,0%)" x1="144.4139" x2="131.3156" y1="54.5465" y2="13.5715" /><line stroke="rgb(100%,0%,0%)" x1="144.4139" x2="153.0" y1="54.5465" y2="81.4064" /><line stroke="rgb(100%,0%,0%)" x1="130.5544" x2="103.0" y1="11.1903" y2="5.1962" /><line stroke="rgb(100%,0%,0%)" x1="194.4139" x2="181.3156" y1="32.056" y2="73.031" /><line stroke="rgb(100%,0%,0%)" x1="225.0318" x2="196.0955" y1="65.7368" y2="33.9059" /><line stroke="rgb(100%,0%,0%)" x1="180.5544" x2="222.5889" y1="75.4123" y2="66.2682" /><line stroke="rgb(100%,0%,0%)" x1="180.5544" x2="153.0" y1="75.4123" y2="81.4064" /><line stroke="rgb(100%,0%,0%)" x1="225.0318" x2="245.5" y1="65.7368" y2="86.6025" /><line stroke="rgb(100%,0%,0%)" x1="194.4139" x2="203.0" y1="32.056" y2="5.1962" /><line stroke="rgb(100%,0%,0%)" x1="239.1874" x2="197.3551" y1="97.5738" y2="156.3191" /><line stroke="rgb(100%,0%,0%)" x1="164.9077" x2="236.6987" y1="90.4809" y2="97.3361" /><line stroke="rgb(100%,0%,0%)" x1="195.9049" x2="165.9462" y1="158.3555" y2="92.755" /><line stroke="rgb(100%,0%,0%)" x1="195.9049" x2="201.5" y1="158.3555" y2="170.607" /><line stroke="rgb(100%,0%,0%)" x1="164.9077" x2="151.5" y1="90.4809" y2="89.2006" /><line stroke="rgb(100%,0%,0%)" x1="239.1874" x2="245.5" y1="97.5738" y2="86.6025" /><line stroke="rgb(100%,0%,0%)" x1="245.9049" x2="215.9462" y1="101.4521" y2="167.0526" /><line stroke="rgb(100%,0%,0%)" x1="289.1874" x2="247.3551" y1="162.2339" y2="103.4886" /><line stroke="rgb(100%,0%,0%)" x1="214.9077" x2="286.6987" y1="169.3267" y2="162.4715" /><line stroke="rgb(100%,0%,0%)" x1="214.9077" x2="201.5" y1="169.3267" y2="170.607" /><line stroke="rgb(100%,0%,0%)" x1="289.1874" x2="297.0" y1="162.2339" y2="173.2051" /><line stroke="rgb(100%,0%,0%)" x1="245.9049" x2="252.25" y1="101.4521" y2="90.4997" /><line stroke="rgb(100%,0%,0%)" x1="289.1874" x2="247.3551" y1="184.1763" y2="242.9216" /><line stroke="rgb(100%,0%,0%)" x1="214.9077" x2="286.6987" y1="177.0834" y2="183.9387" /><line stroke="rgb(100%,0%,0%)" x1="245.9049" x2="215.9462" y1="244.958" y2="179.3575" /><line stroke="rgb(100%,0%,0%)" x1="245.9049" x2="252.25" y1="244.958" y2="255.9105" /><line stroke="rgb(100%,0%,0%)" x1="214.9077" x2="201.5" y1="177.0834" y2="175.8032" /><line stroke="rgb(100%,0%,0%)" x1="289.1874" x2="297.0" y1="184.1763" y2="173.2051" /><line stroke="rgb(100%,0%,0%)" x1="294.4139" x2="281.3156" y1="205.2611" y2="246.2361" /><line stroke="rgb(100%,0%,0%)" x1="325.0318" x2="296.0955" y1="238.9419" y2="207.111" /><line stroke="rgb(100%,0%,0%)" x1="280.5544" x2="322.5889" y1="248.6174" y2="239.4733" /><line stroke="rgb(100%,0%,0%)" x1="280.5544" x2="252.25" y1="248.6174" y2="255.9105" /><line stroke="rgb(100%,0%,0%)" x1="325.0318" x2="344.0" y1="238.9419" y2="259.8076" /><line stroke="rgb(100%,0%,0%)" x1="294.4139" x2="303.0" y1="205.2611" y2="178.4012" /><line stroke="rgb(100%,0%,0%)" x1="325.0318" x2="296.0955" y1="280.6734" y2="312.5043" /><line stroke="rgb(100%,0%,0%)" x1="280.5544" x2="322.5889" y1="270.9979" y2="280.1419" /><line stroke="rgb(100%,0%,0%)" x1="303.0" x2="281.3156" y1="341.214" y2="273.3792" /><line stroke="rgb(100%,0%,0%)" x1="280.5544" x2="253.0" y1="270.9979" y2="265.0038" /><line stroke="rgb(100%,0%,0%)" x1="325.0318" x2="344.0" y1="280.6734" y2="259.8076" /><line stroke="rgb(100%,0%,0%)" x1="294.0" x2="246.0955" y1="0.0" y2="52.6967" /><line stroke="rgb(100%,0%,0%)" x1="230.5544" x2="272.5889" y1="11.1903" y2="20.3343" /><line stroke="rgb(100%,0%,0%)" x1="244.4139" x2="231.3156" y1="54.5465" y2="13.5715" /><line stroke="rgb(100%,0%,0%)" x1="244.4139" x2="253.0" y1="54.5465" y2="81.4064" /><line stroke="rgb(100%,0%,0%)" x1="230.5544" x2="203.0" y1="11.1903" y2="5.1962" /><line stroke="rgb(100%,0%,0%)" x1="303.0" x2="281.3156" y1="5.1962" y2="73.031" /><line stroke="rgb(100%,0%,0%)" x1="325.0318" x2="296.0955" y1="65.7368" y2="33.9059" /><line stroke="rgb(100%,0%,0%)" x1="280.5544" x2="322.5889" y1="75.4123" y2="66.2682" /><line stroke="rgb(100%,0%,0%)" x1="280.5544" x2="253.0" y1="75.4123" y2="81.4064" /><line stroke="rgb(100%,0%,0%)" x1="325.0318" x2="344.0" y1="65.7368" y2="86.6025" /><line stroke="rgb(100%,0%,0%)" x1="325.0318" x2="296.0955" y1="107.4683" y2="139.2992" /><line stroke="rgb(100%,0%,0%)" x1="280.5544" x2="322.5889" y1="97.7928" y2="106.9369" /><line stroke="rgb(100%,0%,0%)" x1="294.4139" x2="281.3156" y1="141.1491" y2="100.1741" /><line stroke="rgb(100%,0%,0%)" x1="294.4139" x2="303.0" y1="141.1491" y2="168.0089" /><line stroke="rgb(100%,0%,0%)" x1="280.5544" x2="252.25" y1="97.7928" y2="90.4997" /><line stroke="rgb(100%,0%,0%)" x1="325.0318" x2="344.0" y1="107.4683" y2="86.6025" /><line stroke="rgb(100%,0%,0%)" x1="353.0" x2="331.3156" y1="91.7987" y2="159.6335" /><line stroke="rgb(100%,0%,0%)" x1="375.0318" x2="346.0955" y1="152.3393" y2="120.5084" /><line stroke="rgb(100%,0%,0%)" x1="330.5544" x2="372.5889" y1="162.0148" y2="152.8708" /><line stroke="rgb(100%,0%,0%)" x1="330.5544" x2="303.0" y1="162.0148" y2="168.0089" /><line stroke="rgb(100%,0%,0%)" x1="375.0318" x2="394.0" y1="152.3393" y2="173.2051" /><line stroke="rgb(100%,0%,0%)" x1="375.0318" x2="346.0955" y1="194.0708" y2="225.9017" /><line stroke="rgb(100%,0%,0%)" x1="330.5544" x2="372.5889" y1="184.3953" y2="193.5394" /><line stroke="rgb(100%,0%,0%)" x1="353.0" x2="331.3156" y1="254.6115" y2="186.7766" /><line stroke="rgb(100%,0%,0%)" x1="330.5544" x2="303.0" y1="184.3953" y2="178.4012" /><line stroke="rgb(100%,0%,0%)" x1="375.0318" x2="394.0" y1="194.0708" y2="173.2051" /></svg>