<?xml version="1.0" encoding="utf-8" ?>
<svg baseProfile="tiny" height="100%" version="1.2" width="100%" xmlns="http://www.w3.org/2000/svg" xmlns:ev="http://www.w3.org/2001/xml-events" xmlns:xlink="http://www.w3.org/1999/xlink"><defs /><line stroke="rgb(100%,0%,0%)" x1="100" x2="150.0" y1="100" y2="186.6025" /><line stroke="rgb(100%,0%,0%)" x1="150.0" x2="200.0" y1="186.6025" y2="100.0" /><line stroke="rgb(100%,0%,0%)" x1="200.0" x2="100" y1="100.0" y2="100" /><line stroke="rgb(100%,0%,0%)" x1="105.0" x2="162.8664" y1="108.6603" y2="118.8637" /><line stroke="rgb(100%,0%,0%)" x1="155.0" x2="134.9032" y1="177.9423" y2="122.7269" /><line stroke="rgb(100%,0%,0%)" x1="190.0" x2="152.2304" y1="100.0" y2="145.012" /><line stroke="rgb(100%,0%,0%)" x1="100" x2="50.0" y1="100" y2="186.6025" /><line stroke="rgb(100%,0%,0%)" x1="50.0" x2="150.0" y1="186.6025" y2="186.6025" /><line stroke="rgb(100%,0%,0%)" x1="150.0" x2="100" y1="186.6025" y2="100" /><line stroke="rgb(100%,0%,0%)" x1="105.0" x2="84.9032" y1="108.6603" y2="163.8757" /><line stroke="rgb(100%,0%,0%)" x1="140.0" x2="102.2304" y1="186.6025" y2="141.5905" /><line stroke="rgb(100%,0%,0%)" x1="55.0" x2="112.8664" y1="177.9423" y2="167.7389" /><line stroke="rgb(100%,0%,0%)" x1="100" x2="0.0" y1="100" y2="100.0" /><line stroke="rgb(100%,0%,0%)" x1="0.0" x2="50.0" y1="100.0" y2="186.6025" /><line stroke="rgb(100%,0%,0%)" x1="50.0" x2="100" y1="186.6025" y2="100" /><line stroke="rgb(100%,0%,0%)" x1="90.0" x2="52.2304" y1="100.0" y2="145.012" /><line stroke="rgb(100%,0%,0%)" x1="5.0" x2="62.8664" y1="108.6603" y2="118.8637" /><line stroke="rgb(100%,0%,0%)" x1="55.0" x2="34.9032" y1="177.9423" y2="122.7269" /><line stroke="rgb(100%,0%,0%)" x1="100" x2="50.0" y1="100" y2="13.3975" /><line stroke="rgb(100%,0%,0%)" x1="50.0" x2="-0.0" y1="13.3975" y2="100.0" /><line stroke="rgb(100%,0%,0%)" x1="-0.0" x2="100" y1="100.0" y2="100" /><line stroke="rgb(100%,0%,0%)" x1="90.0" x2="52.2304" y1="100.0" y2="54.988" /><line stroke="rgb(100%,0%,0%)" x1="5.0" x2="62.8664" y1="91.3397" y2="81.1363" /><line stroke="rgb(100%,0%,0%)" x1="55.0" x2="34.9032" y1="22.0577" y2="77.2731" /><line stroke="rgb(100%,0%,0%)" x1="100" x2="150.0" y1="100" y2="13.3975" /><line stroke="rgb(100%,0%,0%)" x1="150.0" x2="50.0" y1="13.3975" y2="13.3975" /><line stroke="rgb(100%,0%,0%)" x1="50.0" x2="100" y1="13.3975" y2="100" /><line stroke="rgb(100%,0%,0%)" x1="105.0" x2="84.9032" y1="91.3397" y2="36.1243" /><line stroke="rgb(100%,0%,0%)" x1="140.0" x2="102.2304" y1="13.3975" y2="58.4095" /><line stroke="rgb(100%,0%,0%)" x1="55.0" x2="112.8664" y1="22.0577" y2="32.2611" /><line stroke="rgb(100%,0%,0%)" x1="100" x2="200.0" y1="100" y2="100.0" /><line stroke="rgb(100%,0%,0%)" x1="200.0" x2="150.0" y1="100.0" y2="13.3975" /><line stroke="rgb(100%,0%,0%)" x1="150.0" x2="100" y1="13.3975" y2="100" /><line stroke="rgb(100%,0%,0%)" x1="105.0" x2="162.8664" y1="91.3397" y2="81.1363" /><line stroke="rgb(100%,0%,0%)" x1="155.0" x2="134.9032" y1="22.0577" y2="77.2731" /><line stroke="rgb(100%,0%,0%)" x1="190.0" x2="152.2304" y1="100.0" y2="54.988" /></svg>