<?xml version="1.0" encoding="utf-8" ?>
<svg baseProfile="tiny" height="100%" version="1.2" width="100%" xmlns="http://www.w3.org/2000/svg" xmlns:ev="http://www.w3.org/2001/xml-events" xmlns:xlink="http://www.w3.org/1999/xlink"><defs /><line stroke="rgb(100%,0%,0%)" x1="100" x2="150.0" y1="100" y2="186.6025" /><line stroke="rgb(100%,0%,0%)" x1="150.0" x2="200.0" y1="186.6025" y2="100.0" /><line stroke="rgb(100%,0%,0%)" x1="200.0" x2="100" y1="100.0" y2="100" /><line stroke="rgb(100%,0%,0%)" x1="105.0" x2="154.2404" y1="108.6603" y2="117.3427" /><line stroke="rgb(100%,0%,0%)" x1="155.0" x2="137.899" y1="177.9423" y2="130.9577" /><line stroke="rgb(100%,0%,0%)" x1="190.0" x2="157.8606" y1="100.0" y2="138.3022" /><line stroke="rgb(100%,0%,0%)" x1="100" x2="50.0" y1="100" y2="186.6025" /><line stroke="rgb(100%,0%,0%)" x1="50.0" x2="150.0" y1="186.6025" y2="186.6025" /><line stroke="rgb(100%,0%,0%)" x1="150.0" x2="100" y1="186.6025" y2="100" /><line stroke="rgb(100%,0%,0%)" x1="105.0" x2="87.899" y1="108.6603" y2="155.6449" /><line stroke="rgb(100%,0%,0%)" x1="140.0" x2="107.8606" y1="186.6025" y2="148.3003" /><line stroke="rgb(100%,0%,0%)" x1="55.0" x2="104.2404" y1="177.9423" y2="169.2599" /><line stroke="rgb(100%,0%,0%)" x1="100" x2="0.0" y1="100" y2="100.0" /><line stroke="rgb(100%,0%,0%)" x1="0.0" x2="50.0" y1="100.0" y2="186.6025" /><line stroke="rgb(100%,0%,0%)" x1="50.0" x2="100" y1="186.6025" y2="100" /><line stroke="rgb(100%,0%,0%)" x1="90.0" x2="57.8606" y1="100.0" y2="138.3022" /><line stroke="rgb(100%,0%,0%)" x1="5.0" x2="54.2404" y1="108.6603" y2="117.3427" /><line stroke="rgb(100%,0%,0%)" x1="55.0" x2="37.899" y1="177.9423" y2="130.9577" /><line stroke="rgb(100%,0%,0%)" x1="100" x2="50.0" y1="100" y2="13.3975" /><line stroke="rgb(100%,0%,0%)" x1="50.0" x2="-0.0" y1="13.3975" y2="100.0" /><line stroke="rgb(100%,0%,0%)" x1="-0.0" x2="100" y1="100.0" y2="100" /><line stroke="rgb(100%,0%,0%)" x1="90.0" x2="57.8606" y1="100.0" y2="61.6978" /><line stroke="rgb(100%,0%,0%)" x1="5.0" x2="54.2404" y1="91.3397" y2="82.6573" /><line stroke="rgb(100%,0%,0%)" x1="55.0" x2="37.899" y1="22.0577" y2="69.0423" /><line stroke="rgb(100%,0%,0%)" x1="100" x2="150.0" y1="100" y2="13.3975" /><line stroke="rgb(100%,0%,0%)" x1="150.0" x2="50.0" y1="13.3975" y2="13.3975" /><line stroke="rgb(100%,0%,0%)" x1="50.0" x2="100" y1="13.3975" y2="100" /><line stroke="rgb(100%,0%,0%)" x1="105.0" x2="87.899" y1="91.3397" y2="44.3551" /><line stroke="rgb(100%,0%,0%)" x1="140.0" x2="107.8606" y1="13.3975" y2="51.6997" /><line stroke="rgb(100%,0%,0%)" x1="55.0" x2="104.2404" y1="22.0577" y2="30.7401" /><line stroke="rgb(100%,0%,0%)" x1="100" x2="200.0" y1="100" y2="100.0" /><line stroke="rgb(100%,0%,0%)" x1="200.0" x2="150.0" y1="100.0" y2="13.3975" /><line stroke="rgb(100%,0%,0%)" x1="150.0" x2="100" y1="13.3975" y2="100" /><line stroke="rgb(100%,0%,0%)" x1="105.0" x2="154.2404" y1="91.3397" y2="82.6573" /><line stroke="rgb(100%,0%,0%)" x1="155.0" x2="137.899" y1="22.0577" y2="69.0423" /><line stroke="rgb(100%,0%,0%)" x1="190.0" x2="157.8606" y1="100.0" y2="61.6978" /></svg>