<?xml version="1.0" encoding="utf-8" ?>
<svg baseProfile="tiny" height="100%" version="1.2" width="100%" xmlns="http://www.w3.org/2000/svg" xmlns:ev="http://www.w3.org/2001/xml-events" xmlns:xlink="http://www.w3.org/1999/xlink"><defs /><line stroke="rgb(100%,0%,0%)" x1="100" x2="150.0" y1="100" y2="186.6025" /><line stroke="rgb(100%,0%,0%)" x1="150.0" x2="200.0" y1="186.6025" y2="100.0" /><line stroke="rgb(100%,0%,0%)" x1="200.0" x2="100" y1="100.0" y2="100" /><line stroke="rgb(100%,0%,0%)" x1="105.0" x2="154.8782" y1="108.6603" y2="112.1481" /><line stroke="rgb(100%,0%,0%)" x1="155.0" x2="133.0814" y1="177.9423" y2="133.0026" /><line stroke="rgb(100%,0%,0%)" x1="190.0" x2="162.0404" y1="100.0" y2="141.4519" /><line stroke="rgb(100%,0%,0%)" x1="100" x2="50.0" y1="100" y2="186.6025" /><line stroke="rgb(100%,0%,0%)" x1="50.0" x2="150.0" y1="186.6025" y2="186.6025" /><line stroke="rgb(100%,0%,0%)" x1="150.0" x2="100" y1="186.6025" y2="100" /><line stroke="rgb(100%,0%,0%)" x1="95.0" x2="45.1218" y1="108.6603" y2="105.1724" /><line stroke="rgb(100%,0%,0%)" x1="60.0" x2="87.9596" y1="186.6025" y2="145.1507" /><line stroke="rgb(100%,0%,0%)" x1="145.0" x2="166.9186" y1="177.9423" y2="222.882" /><line stroke="rgb(100%,0%,0%)" x1="100" x2="0.0" y1="100" y2="100.0" /><line stroke="rgb(100%,0%,0%)" x1="0.0" x2="50.0" y1="100.0" y2="186.6025" /><line stroke="rgb(100%,0%,0%)" x1="50.0" x2="100" y1="186.6025" y2="100" /><line stroke="rgb(100%,0%,0%)" x1="90.0" x2="139.8782" y1="100.0" y2="103.4878" /><line stroke="rgb(100%,0%,0%)" x1="5.0" x2="54.8782" y1="108.6603" y2="112.1481" /><line stroke="rgb(100%,0%,0%)" x1="55.0" x2="104.8782" y1="177.9423" y2="181.4301" /><line stroke="rgb(100%,0%,0%)" x1="100" x2="50.0" y1="100" y2="13.3975" /><line stroke="rgb(100%,0%,0%)" x1="50.0" x2="-0.0" y1="13.3975" y2="100.0" /><line stroke="rgb(100%,0%,0%)" x1="-0.0" x2="100" y1="100.0" y2="100" /><line stroke="rgb(100%,0%,0%)" x1="95.0" x2="45.1218" y1="91.3397" y2="87.8519" /><line stroke="rgb(100%,0%,0%)" x1="45.0" x2="66.9186" y1="22.0577" y2="66.9974" /><line stroke="rgb(100%,0%,0%)" x1="10.0" x2="37.9596" y1="100.0" y2="58.5481" /><line stroke="rgb(100%,0%,0%)" x1="100" x2="150.0" y1="100" y2="13.3975" /><line stroke="rgb(100%,0%,0%)" x1="150.0" x2="50.0" y1="13.3975" y2="13.3975" /><line stroke="rgb(100%,0%,0%)" x1="50.0" x2="100" y1="13.3975" y2="100" /><line stroke="rgb(100%,0%,0%)" x1="105.0" x2="154.8782" y1="91.3397" y2="94.8276" /><line stroke="rgb(100%,0%,0%)" x1="140.0" x2="112.0404" y1="13.3975" y2="54.8493" /><line stroke="rgb(100%,0%,0%)" x1="55.0" x2="33.0814" y1="22.0577" y2="-22.882" /><line stroke="rgb(100%,0%,0%)" x1="100" x2="200.0" y1="100" y2="100.0" /><line stroke="rgb(100%,0%,0%)" x1="200.0" x2="150.0" y1="100.0" y2="13.3975" /><line stroke="rgb(100%,0%,0%)" x1="150.0" x2="100" y1="13.3975" y2="100" /><line stroke="rgb(100%,0%,0%)" x1="110.0" x2="60.1218" y1="100.0" y2="96.5122" /><line stroke="rgb(100%,0%,0%)" x1="195.0" x2="145.1218" y1="91.3397" y2="87.8519" /><line stroke="rgb(100%,0%,0%)" x1="145.0" x2="95.1218" y1="22.0577" y2="18.5699" /></svg>