<?xml version="1.0" encoding="utf-8" ?>
<svg baseProfile="tiny" height="100%" version="1.2" width="100%" xmlns="http://www.w3.org/2000/svg" xmlns:ev="http://www.w3.org/2001/xml-events" xmlns:xlink="http://www.w3.org/1999/xlink"><defs /><line stroke="rgb(100%,0%,0%)" x1="200" x2="275.0" y1="200" y2="329.9038" /><line stroke="rgb(100%,0%,0%)" x1="275.0" x2="350.0" y1="329.9038" y2="200.0" /><line stroke="rgb(100%,0%,0%)" x1="350.0" x2="200" y1="200.0" y2="200" /><line stroke="rgb(100%,0%,0%)" x1="205.0" x2="311.3461" y1="208.6603" y2="227.4119" /><line stroke="rgb(100%,0%,0%)" x1="280.0" x2="243.0664" y1="321.2436" y2="219.7693" /><line stroke="rgb(100%,0%,0%)" x1="340.0" x2="270.5875" y1="200.0" y2="282.7226" /><line stroke="rgb(100%,0%,0%)" x1="200" x2="125.0" y1="200" y2="329.9038" /><line stroke="rgb(100%,0%,0%)" x1="125.0" x2="275.0" y1="329.9038" y2="329.9038" /><line stroke="rgb(100%,0%,0%)" x1="275.0" x2="200" y1="329.9038" y2="200" /><line stroke="rgb(100%,0%,0%)" x1="205.0" x2="168.0664" y1="208.6603" y2="310.1345" /><line stroke="rgb(100%,0%,0%)" x1="265.0" x2="195.5875" y1="329.9038" y2="247.1812" /><line stroke="rgb(100%,0%,0%)" x1="130.0" x2="236.3461" y1="321.2436" y2="302.4919" /><line stroke="rgb(100%,0%,0%)" x1="200" x2="50.0" y1="200" y2="200.0" /><line stroke="rgb(100%,0%,0%)" x1="50.0" x2="125.0" y1="200.0" y2="329.9038" /><line stroke="rgb(100%,0%,0%)" x1="125.0" x2="200" y1="329.9038" y2="200" /><line stroke="rgb(100%,0%,0%)" x1="190.0" x2="120.5875" y1="200.0" y2="282.7226" /><line stroke="rgb(100%,0%,0%)" x1="55.0" x2="161.3461" y1="208.6603" y2="227.4119" /><line stroke="rgb(100%,0%,0%)" x1="130.0" x2="93.0664" y1="321.2436" y2="219.7693" /><line stroke="rgb(100%,0%,0%)" x1="200" x2="125.0" y1="200" y2="70.0962" /><line stroke="rgb(100%,0%,0%)" x1="125.0" x2="50.0" y1="70.0962" y2="200.0" /><line stroke="rgb(100%,0%,0%)" x1="50.0" x2="200" y1="200.0" y2="200" /><line stroke="rgb(100%,0%,0%)" x1="190.0" x2="120.5875" y1="200.0" y2="117.2774" /><line stroke="rgb(100%,0%,0%)" x1="55.0" x2="161.3461" y1="191.3397" y2="172.5881" /><line stroke="rgb(100%,0%,0%)" x1="130.0" x2="93.0664" y1="78.7564" y2="180.2307" /><line stroke="rgb(100%,0%,0%)" x1="200" x2="275.0" y1="200" y2="70.0962" /><line stroke="rgb(100%,0%,0%)" x1="275.0" x2="125.0" y1="70.0962" y2="70.0962" /><line stroke="rgb(100%,0%,0%)" x1="125.0" x2="200" y1="70.0962" y2="200" /><line stroke="rgb(100%,0%,0%)" x1="205.0" x2="168.0664" y1="191.3397" y2="89.8655" /><line stroke="rgb(100%,0%,0%)" x1="265.0" x2="195.5875" y1="70.0962" y2="152.8188" /><line stroke="rgb(100%,0%,0%)" x1="130.0" x2="236.3461" y1="78.7564" y2="97.5081" /><line stroke="rgb(100%,0%,0%)" x1="200" x2="350.0" y1="200" y2="200.0" /><line stroke="rgb(100%,0%,0%)" x1="350.0" x2="275.0" y1="200.0" y2="70.0962" /><line stroke="rgb(100%,0%,0%)" x1="275.0" x2="200" y1="70.0962" y2="200" /><line stroke="rgb(100%,0%,0%)" x1="205.0" x2="311.3461" y1="191.3397" y2="172.5881" /><line stroke="rgb(100%,0%,0%)" x1="280.0" x2="243.0664" y1="78.7564" y2="180.2307" /><line stroke="rgb(100%,0%,0%)" x1="340.0" x2="270.5875" y1="200.0" y2="117.2774" /></svg>