<?xml version="1.0" encoding="utf-8" ?>
<svg baseProfile="tiny" height="100%" version="1.2" width="100%" xmlns="http://www.w3.org/2000/svg" xmlns:ev="http://www.w3.org/2001/xml-events" xmlns:xlink="http://www.w3.org/1999/xlink"><defs /><line stroke="rgb(0%,0%,0%)" x1="150.0" x2="200.0" y1="86.6025" y2="173.2051" /><line stroke="rgb(0%,0%,0%)" x1="200.0" x2="100.0" y1="173.2051" y2="173.2051" /><line stroke="rgb(0%,0%,0%)" x1="100.0" x2="150.0" y1="173.2051" y2="86.6025" /><line stroke="rgb(100%,0%,0%)" x1="144.4139" x2="131.3156" y1="118.6585" y2="159.6335" /><line stroke="rgb(100%,0%,0%)" x1="175.0318" x2="146.0955" y1="152.3393" y2="120.5084" /><line stroke="rgb(100%,0%,0%)" x1="103.0" x2="172.5889" y1="168.0089" y2="152.8708" /><line stroke="rgb(100%,0%,0%)" x1="175.0318" x2="194.0" y1="152.3393" y2="173.2051" /><line stroke="rgb(100%,0%,0%)" x1="144.4139" x2="153.0" y1="118.6585" y2="91.7987" /><line stroke="rgb(0%,0%,0%)" x1="200.0" x2="100.0" y1="173.2051" y2="173.2051" /><line stroke="rgb(0%,0%,0%)" x1="100.0" x2="150.0" y1="173.2051" y2="259.8076" /><line stroke="rgb(0%,0%,0%)" x1="150.0" x2="200.0" y1="259.8076" y2="173.2051" /><line stroke="rgb(100%,0%,0%)" x1="175.0318" x2="146.0955" y1="194.0708" y2="225.9017" /><line stroke="rgb(100%,0%,0%)" x1="103.0" x2="172.5889" y1="178.4012" y2="193.5394" /><line stroke="rgb(100%,0%,0%)" x1="144.4139" x2="131.3156" y1="227.7516" y2="186.7766" /><line stroke="rgb(100%,0%,0%)" x1="144.4139" x2="153.0" y1="227.7516" y2="254.6115" /><line stroke="rgb(100%,0%,0%)" x1="175.0318" x2="194.0" y1="194.0708" y2="173.2051" /><line stroke="rgb(0%,0%,0%)" x1="200.0" x2="250.0" y1="173.2051" y2="259.8076" /><line stroke="rgb(0%,0%,0%)" x1="250.0" x2="150.0" y1="259.8076" y2="259.8076" /><line stroke="rgb(0%,0%,0%)" x1="150.0" x2="200.0" y1="259.8076" y2="173.2051" /><line stroke="rgb(100%,0%,0%)" x1="194.4139" x2="181.3156" y1="205.2611" y2="246.2361" /><line stroke="rgb(100%,0%,0%)" x1="244.0" x2="196.0955" y1="259.8076" y2="207.111" /><line stroke="rgb(100%,0%,0%)" x1="180.5544" x2="222.5889" y1="248.6174" y2="239.4733" /><line stroke="rgb(100%,0%,0%)" x1="180.5544" x2="153.0" y1="248.6174" y2="254.6115" /><line stroke="rgb(100%,0%,0%)" x1="194.4139" x2="203.0" y1="205.2611" y2="178.4012" /><line stroke="rgb(0%,0%,0%)" x1="250.0" x2="150.0" y1="86.6025" y2="86.6025" /><line stroke="rgb(0%,0%,0%)" x1="150.0" x2="200.0" y1="86.6025" y2="173.2051" /><line stroke="rgb(0%,0%,0%)" x1="200.0" x2="250.0" y1="173.2051" y2="86.6025" /><line stroke="rgb(100%,0%,0%)" x1="244.0" x2="196.0955" y1="86.6025" y2="139.2992" /><line stroke="rgb(100%,0%,0%)" x1="180.5544" x2="222.5889" y1="97.7928" y2="106.9369" /><line stroke="rgb(100%,0%,0%)" x1="194.4139" x2="181.3156" y1="141.1491" y2="100.1741" /><line stroke="rgb(100%,0%,0%)" x1="194.4139" x2="203.0" y1="141.1491" y2="168.0089" /><line stroke="rgb(100%,0%,0%)" x1="180.5544" x2="153.0" y1="97.7928" y2="91.7987" /><line stroke="rgb(0%,0%,0%)" x1="250.0" x2="300.0" y1="86.6025" y2="173.2051" /><line stroke="rgb(0%,0%,0%)" x1="300.0" x2="200.0" y1="173.2051" y2="173.2051" /><line stroke="rgb(0%,0%,0%)" x1="200.0" x2="250.0" y1="173.2051" y2="86.6025" /><line stroke="rgb(100%,0%,0%)" x1="253.0" x2="231.3156" y1="91.7987" y2="159.6335" /><line stroke="rgb(100%,0%,0%)" x1="275.0318" x2="246.0955" y1="152.3393" y2="120.5084" /><line stroke="rgb(100%,0%,0%)" x1="230.5544" x2="272.5889" y1="162.0148" y2="152.8708" /><line stroke="rgb(100%,0%,0%)" x1="230.5544" x2="203.0" y1="162.0148" y2="168.0089" /><line stroke="rgb(100%,0%,0%)" x1="275.0318" x2="294.0" y1="152.3393" y2="173.2051" /><line stroke="rgb(0%,0%,0%)" x1="300.0" x2="200.0" y1="173.2051" y2="173.2051" /><line stroke="rgb(0%,0%,0%)" x1="200.0" x2="250.0" y1="173.2051" y2="259.8076" /><line stroke="rgb(0%,0%,0%)" x1="250.0" x2="300.0" y1="259.8076" y2="173.2051" /><line stroke="rgb(100%,0%,0%)" x1="275.0318" x2="246.0955" y1="194.0708" y2="225.9017" /><line stroke="rgb(100%,0%,0%)" x1="230.5544" x2="272.5889" y1="184.3953" y2="193.5394" /><line stroke="rgb(100%,0%,0%)" x1="253.0" x2="231.3156" y1="254.6115" y2="186.7766" /><line stroke="rgb(100%,0%,0%)" x1="230.5544" x2="203.0" y1="184.3953" y2="178.4012" /><line stroke="rgb(100%,0%,0%)" x1="275.0318" x2="294.0" y1="194.0708" y2="173.2051" /></svg>