<?xml version="1.0" encoding="utf-8" ?>
<svg baseProfile="tiny" height="100%" version="1.2" width="100%" xmlns="http://www.w3.org/2000/svg" xmlns:ev="http://www.w3.org/2001/xml-events" xmlns:xlink="http://www.w3.org/1999/xlink"><defs /><line stroke="rgb(0%,0%,0%)" x1="150.0" x2="200.0" y1="86.6025" y2="173.2051" /><line stroke="rgb(0%,0%,0%)" x1="200.0" x2="100.0" y1="173.2051" y2="173.2051" /><line stroke="rgb(0%,0%,0%)" x1="100.0" x2="150.0" y1="173.2051" y2="86.6025" /><line stroke="rgb(100%,0%,0%)" x1="153.75" x2="143.6694" y1="93.0977" y2="134.6506" /><line stroke="rgb(100%,0%,0%)" x1="192.5" x2="161.5545" y1="173.2051" y2="143.6986" /><line stroke="rgb(100%,0%,0%)" x1="103.75" x2="144.7761" y1="166.7099" y2="154.6635" /><line stroke="rgb(100%,0%,0%)" x1="166.3203" x2="159.7451" y1="114.8701" y2="141.9734" /><line stroke="rgb(100%,0%,0%)" x1="167.3594" x2="147.1748" y1="173.2051" y2="153.9592" /><line stroke="rgb(100%,0%,0%)" x1="116.3203" x2="143.08" y1="144.9375" y2="137.0801" /><line stroke="rgb(100%,0%,0%)" x1="159.7451" x2="143.6694" y1="141.9734" y2="134.6506" /><line stroke="rgb(100%,0%,0%)" x1="147.1748" x2="161.5545" y1="153.9592" y2="143.6986" /><line stroke="rgb(100%,0%,0%)" x1="143.08" x2="144.7761" y1="137.0801" y2="154.6635" /><line stroke="rgb(0%,0%,0%)" x1="200.0" x2="100.0" y1="173.2051" y2="173.2051" /><line stroke="rgb(0%,0%,0%)" x1="100.0" x2="150.0" y1="173.2051" y2="259.8076" /><line stroke="rgb(0%,0%,0%)" x1="150.0" x2="200.0" y1="259.8076" y2="173.2051" /><line stroke="rgb(100%,0%,0%)" x1="192.5" x2="161.5545" y1="173.2051" y2="202.7115" /><line stroke="rgb(100%,0%,0%)" x1="103.75" x2="144.7761" y1="179.7003" y2="191.7467" /><line stroke="rgb(100%,0%,0%)" x1="153.75" x2="143.6694" y1="253.3124" y2="211.7596" /><line stroke="rgb(100%,0%,0%)" x1="167.3594" x2="147.1748" y1="173.2051" y2="192.451" /><line stroke="rgb(100%,0%,0%)" x1="116.3203" x2="143.08" y1="201.4727" y2="209.3301" /><line stroke="rgb(100%,0%,0%)" x1="166.3203" x2="159.7451" y1="231.54" y2="204.4367" /><line stroke="rgb(100%,0%,0%)" x1="147.1748" x2="161.5545" y1="192.451" y2="202.7115" /><line stroke="rgb(100%,0%,0%)" x1="143.08" x2="144.7761" y1="209.3301" y2="191.7467" /><line stroke="rgb(100%,0%,0%)" x1="159.7451" x2="143.6694" y1="204.4367" y2="211.7596" /><line stroke="rgb(0%,0%,0%)" x1="200.0" x2="250.0" y1="173.2051" y2="259.8076" /><line stroke="rgb(0%,0%,0%)" x1="250.0" x2="150.0" y1="259.8076" y2="259.8076" /><line stroke="rgb(0%,0%,0%)" x1="150.0" x2="200.0" y1="259.8076" y2="173.2051" /><line stroke="rgb(100%,0%,0%)" x1="203.75" x2="193.6694" y1="179.7003" y2="221.2531" /><line stroke="rgb(100%,0%,0%)" x1="242.5" x2="211.5545" y1="259.8076" y2="230.3012" /><line stroke="rgb(100%,0%,0%)" x1="153.75" x2="194.7761" y1="253.3124" y2="241.2661" /><line stroke="rgb(100%,0%,0%)" x1="216.3203" x2="209.7451" y1="201.4727" y2="228.576" /><line stroke="rgb(100%,0%,0%)" x1="217.3594" x2="197.1748" y1="259.8076" y2="240.5617" /><line stroke="rgb(100%,0%,0%)" x1="166.3203" x2="193.08" y1="231.54" y2="223.6826" /><line stroke="rgb(100%,0%,0%)" x1="209.7451" x2="193.6694" y1="228.576" y2="221.2531" /><line stroke="rgb(100%,0%,0%)" x1="197.1748" x2="211.5545" y1="240.5617" y2="230.3012" /><line stroke="rgb(100%,0%,0%)" x1="193.08" x2="194.7761" y1="223.6826" y2="241.2661" /><line stroke="rgb(0%,0%,0%)" x1="250.0" x2="150.0" y1="86.6025" y2="86.6025" /><line stroke="rgb(0%,0%,0%)" x1="150.0" x2="200.0" y1="86.6025" y2="173.2051" /><line stroke="rgb(0%,0%,0%)" x1="200.0" x2="250.0" y1="173.2051" y2="86.6025" /><line stroke="rgb(100%,0%,0%)" x1="242.5" x2="211.5545" y1="86.6025" y2="116.109" /><line stroke="rgb(100%,0%,0%)" x1="153.75" x2="194.7761" y1="93.0977" y2="105.1441" /><line stroke="rgb(100%,0%,0%)" x1="203.75" x2="193.6694" y1="166.7099" y2="125.1571" /><line stroke="rgb(100%,0%,0%)" x1="217.3594" x2="197.1748" y1="86.6025" y2="105.8484" /><line stroke="rgb(100%,0%,0%)" x1="166.3203" x2="193.08" y1="114.8701" y2="122.7275" /><line stroke="rgb(100%,0%,0%)" x1="216.3203" x2="209.7451" y1="144.9375" y2="117.8342" /><line stroke="rgb(100%,0%,0%)" x1="197.1748" x2="211.5545" y1="105.8484" y2="116.109" /><line stroke="rgb(100%,0%,0%)" x1="193.08" x2="194.7761" y1="122.7275" y2="105.1441" /><line stroke="rgb(100%,0%,0%)" x1="209.7451" x2="193.6694" y1="117.8342" y2="125.1571" /><line stroke="rgb(0%,0%,0%)" x1="250.0" x2="300.0" y1="86.6025" y2="173.2051" /><line stroke="rgb(0%,0%,0%)" x1="300.0" x2="200.0" y1="173.2051" y2="173.2051" /><line stroke="rgb(0%,0%,0%)" x1="200.0" x2="250.0" y1="173.2051" y2="86.6025" /><line stroke="rgb(100%,0%,0%)" x1="253.75" x2="243.6694" y1="93.0977" y2="134.6506" /><line stroke="rgb(100%,0%,0%)" x1="292.5" x2="261.5545" y1="173.2051" y2="143.6986" /><line stroke="rgb(100%,0%,0%)" x1="203.75" x2="244.7761" y1="166.7099" y2="154.6635" /><line stroke="rgb(100%,0%,0%)" x1="266.3203" x2="259.7451" y1="114.8701" y2="141.9734" /><line stroke="rgb(100%,0%,0%)" x1="267.3594" x2="247.1748" y1="173.2051" y2="153.9592" /><line stroke="rgb(100%,0%,0%)" x1="216.3203" x2="243.08" y1="144.9375" y2="137.0801" /><line stroke="rgb(100%,0%,0%)" x1="259.7451" x2="243.6694" y1="141.9734" y2="134.6506" /><line stroke="rgb(100%,0%,0%)" x1="247.1748" x2="261.5545" y1="153.9592" y2="143.6986" /><line stroke="rgb(100%,0%,0%)" x1="243.08" x2="244.7761" y1="137.0801" y2="154.6635" /><line stroke="rgb(0%,0%,0%)" x1="300.0" x2="200.0" y1="173.2051" y2="173.2051" /><line stroke="rgb(0%,0%,0%)" x1="200.0" x2="250.0" y1="173.2051" y2="259.8076" /><line stroke="rgb(0%,0%,0%)" x1="250.0" x2="300.0" y1="259.8076" y2="173.2051" /><line stroke="rgb(100%,0%,0%)" x1="292.5" x2="261.5545" y1="173.2051" y2="202.7115" /><line stroke="rgb(100%,0%,0%)" x1="203.75" x2="244.7761" y1="179.7003" y2="191.7467" /><line stroke="rgb(100%,0%,0%)" x1="253.75" x2="243.6694" y1="253.3124" y2="211.7596" /><line stroke="rgb(100%,0%,0%)" x1="267.3594" x2="247.1748" y1="173.2051" y2="192.451" /><line stroke="rgb(100%,0%,0%)" x1="216.3203" x2="243.08" y1="201.4727" y2="209.3301" /><line stroke="rgb(100%,0%,0%)" x1="266.3203" x2="259.7451" y1="231.54" y2="204.4367" /><line stroke="rgb(100%,0%,0%)" x1="247.1748" x2="261.5545" y1="192.451" y2="202.7115" /><line stroke="rgb(100%,0%,0%)" x1="243.08" x2="244.7761" y1="209.3301" y2="191.7467" /><line stroke="rgb(100%,0%,0%)" x1="259.7451" x2="243.6694" y1="204.4367" y2="211.7596" /></svg>